<?xml version="1.0" ?><svg style="enable-background:new 0 0 48 48;" version="1.1" viewBox="0 0 48 48" xml:space="preserve" xmlns="http://www.w3.org/2000/svg" xmlns:xlink="http://www.w3.org/1999/xlink"><g id="Icons"><g><path d="M23.99572,8.65719c-8.47003,0-15.34003,6.87-15.34003,15.33997    c0,8.48004,6.87,15.35003,15.34003,15.35003c8.47998,0,15.34998-6.87,15.34998-15.35003    C39.3457,15.52719,32.4757,8.65719,23.99572,8.65719z M19.64569,31.68716c0,0.17999-0.04999,0.22998-0.22998,0.22998h-2.87    c-0.17999,0-0.23999-0.04999-0.22998-0.22998V21.5372c-0.01001-0.18005,0.06-0.24005,0.22998-0.23004h2.87    c0.19-0.01001,0.22998,0.04999,0.22998,0.23004V31.68716z M17.98571,19.93716c-1.06,0.01001-1.92999-0.87-1.92999-1.92999    c0-1,0.77997-1.91998,1.91998-1.92999c1.08002,0,1.94,0.81,1.94,1.92999C19.91571,19.10714,19.07574,19.92715,17.98571,19.93716z     M31.64569,31.91714h-2.81c-0.22998,0-0.23999-0.00995-0.23999-0.25V26.5372c0-0.49005-0.01001-0.97003-0.14996-1.44    c-0.22003-0.73004-0.70001-1.08002-1.46002-1.10004c-0.53998-0.01001-1.04999,0.09003-1.44,0.51001    c-0.29999,0.33002-0.44,0.73999-0.48999,1.16998c-0.03998,0.39001-0.07001,0.79004-0.07001,1.19    c-0.01001,1.61005-0.01001,3.22003,0,4.83002c0,0.16998-0.04999,0.21997-0.21997,0.21997h-2.89001    c-0.17004,0-0.23004-0.04999-0.23004-0.21997c0.01001-3.39001,0.01001-6.78003,0-10.16998c0-0.17999,0.06-0.22003,0.23004-0.22003    h2.76001c0.17999,0,0.22998,0.06,0.22998,0.23004c-0.01001,0.37,0,0.75,0,1.12c0.52002-0.76001,1.21997-1.26001,2.09998-1.47003    c1.02002-0.25,2.03003-0.17999,2.98999,0.23999c0.93005,0.40002,1.43005,1.16003,1.69,2.10004    c0.18005,0.60999,0.26001,1.23999,0.27002,1.88c0.01001,2.07001,0.02002,4.14996,0.03003,6.21997    C31.94574,31.91714,31.94574,31.91714,31.64569,31.91714z" style="fill:#0097D3;"/><circle cx="24" cy="24" r="15.34377" style="fill:none;stroke:#303030;stroke-width:0.7;stroke-linecap:round;stroke-linejoin:round;stroke-miterlimit:10;"/><g><path d="     M21.6607,11.47916c0.53679-0.0955,1.07644-0.1576,1.61342-0.18429" style="fill:none;stroke:#303030;stroke-width:0.7;stroke-linecap:round;stroke-linejoin:round;stroke-miterlimit:10;"/><path d="     M15.23582,14.66794c1.44125-1.2413,3.22635-2.35482,5.10565-2.8855" style="fill:none;stroke:#303030;stroke-width:0.7;stroke-linecap:round;stroke-linejoin:round;stroke-miterlimit:10;"/></g><path d="    M24.86241,22.65916c0-0.37413-0.00633-0.74842,0.00284-1.12232c0.00418-0.17041-0.05044-0.23443-0.22721-0.23316    c-0.91956,0.00657-1.83921,0.00618-2.75877,0.00016c-0.16858-0.0011-0.23149,0.04476-0.23125,0.22461    c0.00472,3.388,0.00463,6.77602,0.00013,10.16403c-0.00023,0.17598,0.05597,0.22882,0.22816,0.2277    c0.96192-0.00626,1.92392-0.00677,2.88582,0.00042c0.17502,0.00131,0.22412-0.05272,0.22344-0.22696    c-0.00626-1.60928-0.0083-3.21862-0.0004-4.82788c0.00196-0.3974,0.02636-0.79677,0.07344-1.1913    c0.0514-0.43074,0.18933-0.83798,0.49199-1.16651c0.38857-0.42177,0.89336-0.51685,1.4383-0.50663    c0.76062,0.01426,1.23459,0.3686,1.45193,1.0967c0.14006,0.46923,0.15128,0.95168,0.15153,1.43514    c0.00089,1.71215,0.00015,3.42431,0.00065,5.13647c0.00007,0.23921,0.00777,0.24711,0.24296,0.24729    c0.93776,0.00072,1.8755,0.00046,2.81326,0.00026c0.2923-0.00006,0.29384-0.0005,0.29265-0.28864    c-0.00851-2.07445-0.01402-4.14892-0.02889-6.22333c-0.00456-0.63551-0.08986-1.26384-0.26389-1.87646    c-0.26643-0.93789-0.76835-1.70284-1.69026-2.10235c-0.96453-0.41798-1.97464-0.49359-2.99585-0.24308    C26.08163,21.3995,25.38494,21.89417,24.86241,22.65916z M19.64494,26.62172c0-1.69379-0.003-3.38759,0.0043-5.08135    c0.00079-0.18384-0.04828-0.23885-0.23202-0.23734c-0.95572,0.00784-1.91156,0.00733-2.86729,0.00031    c-0.17909-0.00132-0.23944,0.04884-0.23916,0.23558c0.00516,3.38152,0.00513,6.76305,0.00005,10.14457    c-0.00027,0.18503,0.05664,0.23845,0.23768,0.23708c0.95572-0.00726,1.91157-0.00737,2.86729,0.00009    c0.18121,0.00141,0.23445-0.04946,0.23361-0.23576C19.64179,29.99721,19.64494,28.30946,19.64494,26.62172z M16.05799,18.00804    c0.00018,1.05616,0.86514,1.94054,1.92286,1.92994c1.09141-0.01094,1.93827-0.83299,1.9363-1.93208    c-0.002-1.11825-0.86416-1.9328-1.93835-1.92656C16.83331,16.08598,16.06001,17.0028,16.05799,18.00804z" style="fill:none;stroke:#303030;stroke-width:0.7;stroke-linecap:round;stroke-linejoin:round;stroke-miterlimit:10;"/></g></g></svg>